<svg width="500" height="500" viewBox="0 0 500 500" fill="none" xmlns="http://www.w3.org/2000/svg">
<rect width="500" height="500" fill="url(#paint0_linear_209_142)"/>
<path opacity="0.9" d="M256.356 264.151H176.141L110 347.641H190.625L208.509 324.925L256.356 264.151Z" fill="white"/>
<path opacity="0.6" d="M190.625 347.641L149.404 400H201.472C224.06 400 272.69 363.693 280.592 324.925H208.509L190.625 347.641Z" fill="white"/>
<path opacity="0.8" d="M356.975 250H281.686V314.387C281.686 317.903 281.305 321.424 280.592 324.926C272.69 363.693 224.06 400 201.472 400H311.239C369.641 400 428.746 312.972 356.975 250Z" fill="white"/>
<path opacity="0.8" d="M256.356 235.849H176.141L110 152.359H190.625L208.509 175.075L256.356 235.849Z" fill="white"/>
<path opacity="0.6" d="M190.625 152.359L149.404 100H201.472C224.06 100 272.69 136.307 280.592 175.075H208.509L190.625 152.359Z" fill="white"/>
<path d="M356.975 250H281.686V185.613C281.686 182.097 281.305 178.576 280.592 175.074C272.69 136.307 224.06 100 201.472 100H311.239C369.641 100 428.746 187.028 356.975 250Z" fill="white"/>
<defs>
<linearGradient id="paint0_linear_209_142" x1="0" y1="0" x2="537.236" y2="43.856" gradientUnits="userSpaceOnUse">
<stop stop-color="#00E677"/>
<stop offset="1" stop-color="#01EACE"/>
</linearGradient>
</defs>
</svg>
