<svg width="1920" height="496" viewBox="0 0 1920 496" fill="none" xmlns="http://www.w3.org/2000/svg">
<rect x="-22" width="1950" height="496" fill="url(#paint0_linear_0_1)"/>
<path opacity="0.03" fill-rule="evenodd" clip-rule="evenodd" d="M-60 196L6 238C72 280 204 364 336 394C468 424 600 400 732 376C864 352 996 328 1128 334C1260 340 1392 376 1524 382C1656 388 1788 364 1854 352L1920 340V484H1854C1788 484 1656 484 1524 484C1392 484 1260 484 1128 484C996 484 864 484 732 484C600 484 468 484 336 484C204 484 72 484 6 484H-60V196Z" fill="white"/>
<path opacity="0.02" fill-rule="evenodd" clip-rule="evenodd" d="M1920 203L1855.27 244.125C1790.53 285.25 1661.07 367.5 1531.6 396.875C1402.13 426.25 1272.67 402.75 1143.2 379.25C1013.73 355.75 884.267 332.25 754.8 338.125C625.333 344 495.867 379.25 366.4 385.125C236.933 391 107.467 367.5 42.7333 355.75L-22 344V485H42.7333C107.467 485 236.933 485 366.4 485C495.867 485 625.333 485 754.8 485C884.267 485 1013.73 485 1143.2 485C1272.67 485 1402.13 485 1531.6 485C1661.07 485 1790.53 485 1855.27 485H1920V203Z" fill="white"/>
<defs>
<linearGradient id="paint0_linear_0_1" x1="-22" y1="0" x2="1890.23" y2="613.7" gradientUnits="userSpaceOnUse">
<stop stop-color="#34BE7C"/>
<stop offset="1" stop-color="#2EB6A5"/>
</linearGradient>
</defs>
</svg>
