<svg width="1920" height="282" viewBox="0 0 1920 282" fill="none" xmlns="http://www.w3.org/2000/svg">
<path opacity="0.07" fill-rule="evenodd" clip-rule="evenodd" d="M1931 0L1866.27 41.125C1801.53 82.25 1672.07 164.5 1542.6 193.875C1413.13 223.25 1283.67 199.75 1154.2 176.25C1024.73 152.75 895.267 129.25 765.8 135.125C636.333 141 506.867 176.25 377.4 182.125C247.933 188 118.467 164.5 53.7333 152.75L-11 141V282H53.7333C118.467 282 247.933 282 377.4 282C506.867 282 636.333 282 765.8 282C895.267 282 1024.73 282 1154.2 282C1283.67 282 1413.13 282 1542.6 282C1672.07 282 1801.53 282 1866.27 282H1931V0Z" fill="white"/>
</svg>
